# xmcd
#
# Track frame offsets:
#	150
#	14042
#	26882
#	40212
#	52964
#	67150
#	80076
#	93594
#	107596
#	121649
#	136356
#	149378
#	162649
#	175101
#	189328
#	204074
#	217825
#	229809
#	244024
#	255626
#	269144
#	279984
#	293900
#	306105
#	317771
#
# Disc length: 4372
#
# Revision: 1
# Processed by: cddbd v1.5.1PL0 Copyright (c) Steve Scherf et al.
# Submitted via: WhereIsIt 3.51
# Normalized: r0:DSETVAR1
#
DISCID=72111219
DTITLE=Various Artist - When The Sun Goes Down [CD 4) - That's All Right
DYEAR=1900
DGENRE=Blues
TTITLE0=Doctor Clayton - Pearl Harbor Blues
TTITLE1=Five Breezes - My Buddy Blues
TTITLE2=Big Maceo (Merriweather) - Worried Life Blues
TTITLE3=The Cats and a Fiddle - I'd Rather Drink Muddy Water
TTITLE4=Memphis Slim (Chatman) - Grinder Man Blues
TTITLE5=Pete Johnson and Albert Ammons - Walkin' the Boogie
TTITLE6=Lil Green and Her Trio - Why Don't You Do Right
TTITLE7=Robert Lockwood - Little Boy Blue
TTITLE8=Doctor Clayton - Angels in Harlem
TTITLE9=Sunnyland Slim - Illinois Blues
TTITLE10=Eddie Boyd - Chicago Is Just That Way
TTITLE11=Arthur "Big Boy" Crudup - That's All Right
TTITLE12=Henry "Red" Allen - Get the Mop
TTITLE13=Jazz Gillum - Look on Yonder Wall
TTITLE14=Roosevelt Sykes Trio - Anytime Is the Right Time
TTITLE15=Tampa Red - When Things Go Wrong With You
TTITLE16=Arthur "Big Boy" Crudup - Dust My Broom
TTITLE17=Washboard Sam - Soap and Water Blues
TTITLE18=Piano Red - Rockin' With Red
TTITLE19=Tampa Red - Sweet Little Angel
TTITLE20=Arthur "Big Boy" Crudup - My Baby Left Me
TTITLE21=Johnny Moore's Three Blazers - How Blue Can You Get
TTITLE22=Piano Red - Right String, But the Wrong Yo-Yo
TTITLE23=Sonny Terry - Ride and Roll
TTITLE24=Little Richard - Get Rich Quick
EXTD=
EXTT0=
EXTT1=
EXTT2=
EXTT3=
EXTT4=
EXTT5=
EXTT6=
EXTT7=
EXTT8=
EXTT9=
EXTT10=
EXTT11=
EXTT12=
EXTT13=
EXTT14=
EXTT15=
EXTT16=
EXTT17=
EXTT18=
EXTT19=
EXTT20=
EXTT21=
EXTT22=
EXTT23=
EXTT24=
PLAYORDER=
